<svg xmlns="http://www.w3.org/2000/svg" width="360" height="360" viewBox="0 0 360 360" role="img" style="width:100%;max-width:360px;height:inherit;">
  <path style="fill: #272727; fill-rule: evenodd;" d="M209.541,262.773l-29.167-55.742a65.382,65.382,0,0,1-6.767.234c-5.833,0-9.1-.234-14.7-0.466v55.974H119.24V93.448a435.249,435.249,0,0,1,50.4-2.8c53.2,0,74.2,25.422,74.2,56.675,0,20.291-10.966,38.484-29.4,49.446l40.132,66H209.541ZM174.308,126.1a82.5,82.5,0,0,0-15.4,1.165v47.113a120.509,120.509,0,0,0,12.6.7c18.9,0,31.033-9.1,31.033-26.355C202.541,134.5,191.341,126.1,174.308,126.1Z"/>
  <path style="fill: #272727; fill-rule: evenodd;" d="M322.147,331.468h-2.185v-1.522h6.254v1.522h-2.222v6.494h-1.847v-6.494Zm11.883,3.426c-0.037-.964-0.073-2.13-0.073-3.3h-0.036c-0.254,1.023-.592,2.165-0.9,3.1l-0.991,3.129h-1.436l-0.869-3.105c-0.265-.939-0.544-2.081-0.736-3.128h-0.025c-0.048,1.082-.083,2.32-0.144,3.318l-0.146,3.045h-1.7l0.519-8.016h2.45l0.8,2.676c0.254,0.928.508,1.927,0.688,2.867h0.038c0.229-.928.507-1.987,0.772-2.879l0.869-2.664h2.4l0.446,8.016h-1.8Z"/>
  <path style="fill: #272727; fill-rule: evenodd;" d="M0,0V360H360V0H0ZM348.175,348.175H11.825V11.825h336.35v336.35Z"/>
</svg>
